<mxfile host="app.diagrams.net" modified="2023-06-20T05:29:43.256Z" agent="Mozilla/5.0 (Windows NT 10.0; Win64; x64) AppleWebKit/537.36 (KHTML, like Gecko) Chrome/114.0.0.0 Safari/537.36 Edg/114.0.1823.51" etag="JUhRTkYIK8khp2Xh9f8D" version="21.3.8" type="github">
  <diagram name="第 1 页" id="G6NMNaZ8to5l7yrRWGxO">
    <mxGraphModel dx="1379" dy="876" grid="1" gridSize="10" guides="1" tooltips="1" connect="1" arrows="1" fold="1" page="1" pageScale="1" pageWidth="827" pageHeight="1169" math="0" shadow="0">
      <root>
        <mxCell id="0" />
        <mxCell id="1" parent="0" />
      </root>
    </mxGraphModel>
  </diagram>
</mxfile>
